<?xml version="1.0" encoding="UTF-8" standalone="no"?>
<svg
   xmlns:dc="http://purl.org/dc/elements/1.1/"
   xmlns:cc="http://creativecommons.org/ns#"
   xmlns:rdf="http://www.w3.org/1999/02/22-rdf-syntax-ns#"
   xmlns:svg="http://www.w3.org/2000/svg"
   xmlns="http://www.w3.org/2000/svg"
   xmlns:sodipodi="http://sodipodi.sourceforge.net/DTD/sodipodi-0.dtd"
   xmlns:inkscape="http://www.inkscape.org/namespaces/inkscape"
   width="210mm"
   height="210mm"
   viewBox="0 0 210 210"
   version="1.1"
   id="svg8"
   inkscape:version="1.0.2 (e86c870879, 2021-01-15)"
   sodipodi:docname="icon.svg">
  <defs
     id="defs2">
    <marker
       style="overflow:visible;"
       id="Arrow2Lend"
       refX="0.0"
       refY="0.0"
       orient="auto"
       inkscape:stockid="Arrow2Lend"
       inkscape:isstock="true">
      <path
         transform="scale(1.1) rotate(180) translate(1,0)"
         d="M 8.7185878,4.0337352 L -2.2072895,0.016013256 L 8.7185884,-4.0017078 C 6.9730900,-1.6296469 6.9831476,1.6157441 8.7185878,4.0337352 z "
         style="fill-rule:evenodd;stroke-width:0.625;stroke-linejoin:round;stroke:#ffffff;stroke-opacity:1;fill:#ffffff;fill-opacity:1"
         id="path890" />
    </marker>
    <marker
       style="overflow:visible"
       id="Arrow1Lstart"
       refX="0.0"
       refY="0.0"
       orient="auto"
       inkscape:stockid="Arrow1Lstart"
       inkscape:isstock="true">
      <path
         transform="scale(0.8) translate(12.5,0)"
         style="fill-rule:evenodd;stroke:#000000;stroke-width:1pt;stroke-opacity:1;fill:#000000;fill-opacity:1"
         d="M 0.0,0.0 L 5.0,-5.0 L -12.5,0.0 L 5.0,5.0 L 0.0,0.0 z "
         id="path869" />
    </marker>
    <clipPath
       clipPathUnits="userSpaceOnUse"
       id="clipPath8812">
      <circle
         id="circle8814"
         cx="95.669289"
         cy="95.669296"
         r="79.724197"
         style="fill:#00080d;fill-opacity:1;stroke-width:1" />
    </clipPath>
    <clipPath
       clipPathUnits="userSpaceOnUse"
       id="clipPath8812-1">
      <circle
         id="circle8814-5"
         cx="95.669289"
         cy="95.669296"
         r="79.724197"
         style="fill:#00080d;fill-opacity:1;stroke-width:1" />
    </clipPath>
  </defs>
  <sodipodi:namedview
     id="base"
     pagecolor="#ffffff"
     bordercolor="#666666"
     borderopacity="1.0"
     inkscape:pageopacity="0.0"
     inkscape:pageshadow="2"
     inkscape:zoom="0.7"
     inkscape:cx="483.44042"
     inkscape:cy="453.29684"
     inkscape:document-units="mm"
     inkscape:current-layer="layer1"
     inkscape:document-rotation="0"
     showgrid="false"
     inkscape:window-width="2560"
     inkscape:window-height="1016"
     inkscape:window-x="1080"
     inkscape:window-y="27"
     inkscape:window-maximized="1" />
  <metadata
     id="metadata5">
    <rdf:RDF>
      <cc:Work
         rdf:about="">
        <dc:format>image/svg+xml</dc:format>
        <dc:type
           rdf:resource="http://purl.org/dc/dcmitype/StillImage" />
        <dc:title></dc:title>
      </cc:Work>
    </rdf:RDF>
  </metadata>
  <g
     inkscape:label="Calque 1"
     inkscape:groupmode="layer"
     id="layer1">
    <rect
       style="fill:#0082c9;fill-rule:evenodd;stroke-width:2.86499;stroke-miterlimit:4;stroke-dasharray:none"
       id="rect1333"
       width="210"
       height="210"
       x="3.5527137e-15"
       y="-8.8817842e-15" />
    <path
       d="m 17.163309,68.452537 c 0,19.424364 11.226959,36.175643 27.621793,44.027343 L 21.399282,48.543458 c -2.714062,6.010857 -4.321511,12.782654 -4.321511,19.909079 z m 81.944113,-2.468139 c 0,-6.048287 -2.172341,-10.232539 -4.034589,-13.490134 -2.478858,-4.032782 -4.802614,-7.443626 -4.802614,-11.474629 0,-4.496121 3.407258,-8.682158 8.213448,-8.682158 0.215529,0 0.356298,0 0.712864,0.03906 C 90.414556,24.437502 78.73674,19.447759 66.084183,19.533298 c -17.091668,0 -32.125025,8.769471 -40.873117,22.097436 1.149448,0 2.316678,0 3.207692,0.05856 5.116276,0 13.037484,-0.621947 13.037484,-0.621947 2.635656,-0.153221 3.029476,3.742312 0.356297,4.09873 0,0 -2.649942,0.310093 -5.599204,0.46514 L 54.028511,98.620536 64.73503,66.513299 57.114965,45.631219 c -2.635591,-0.155047 -5.130487,-0.465141 -5.130487,-0.465141 -2.637416,-0.155047 -2.327388,-4.18604 0.309826,-4.031003 0,0 8.019193,0.53458 12.830766,0.621938 5.114459,0 13.039234,-0.621938 13.039234,-0.621938 2.635666,-0.153231 3.029476,3.742311 0.356297,4.031003 0,0 -2.653444,0.310094 -5.599203,0.465141 L 90.59938,98.216005 95.480393,81.913793 c 2.017294,-6.86625 3.571199,-11.677787 3.571199,-15.929766 z m -32.16604,6.746847 -14.678801,42.651615 c 4.383881,1.24745 9.088492,1.96025 13.9,1.96025 5.697263,0 11.159199,-0.98369 16.245243,-2.77286 -0.127975,-0.21014 -0.251234,-0.43308 -0.349571,-0.67542 z M 109.01029,44.931243 c 0.21216,1.603842 0.3563,3.207694 0.3563,5.030723 0,4.963016 -0.92846,10.542616 -3.72093,17.521138 L 90.703099,110.68357 c 14.543361,-8.47895 24.324991,-24.23587 24.324991,-42.2845 -0.027,-8.498592 -2.25424,-16.517832 -5.99658,-23.414369 z M 66.084183,11.428667 c -31.444283,0 -57.0256122,25.581349 -57.0256122,57.025658 0,31.364114 25.6615442,57.025655 57.0256122,57.025655 31.364132,0 57.025667,-25.581326 57.025667,-57.027443 0,-31.362325 -25.661535,-57.02387 -57.025667,-57.02387 z m 0,111.437073 c -30.000842,0 -54.411368,-24.410601 -54.411368,-54.413203 0,-29.936682 24.472897,-54.350793 54.411368,-54.350793 29.93847,0 54.413177,24.414111 54.352557,54.409597 0.0606,29.881427 -24.414087,54.295519 -54.352557,54.354399 z"
       class="style0"
       id="path835"
       style="fill:#ffffff;stroke-width:0.264583" />
    <g
       id="g865"
       transform="matrix(0.97835925,0,0,0.97835925,73.181115,115.72319)"
       style="fill:#ffffff;stroke-width:0.288465">
      <path
         inkscape:connector-curvature="0"
         id="path1052"
         d="m 69.062075,29.580434 c -11.805271,0 -21.811217,8.003196 -24.912392,18.846621 -2.695245,-5.751517 -8.535934,-9.780938 -15.263394,-9.780938 -9.25185,0 -16.85711,7.605263 -16.85711,16.857108 0,9.251833 7.60526,16.860567 16.85711,16.860567 6.72746,0 12.568149,-4.031885 15.263395,-9.784412 3.101175,10.84425 13.10712,18.850106 24.912391,18.850106 11.717964,0 21.67289,-7.885111 24.853382,-18.607048 2.745036,5.621934 8.513433,9.541354 15.145343,9.541354 9.25185,0 16.86057,-7.608734 16.86057,-16.860567 0,-9.251845 -7.60872,-16.857108 -16.86057,-16.857108 -6.63191,0 -12.400307,3.916965 -15.145343,9.537891 C 90.734965,37.462909 80.780039,29.580434 69.062075,29.580434 Z m 0,9.895518 c 8.911648,0 16.030748,7.115653 16.030748,16.027273 0,8.911605 -7.1191,16.030737 -16.030748,16.030737 -8.911593,0 -16.027247,-7.119132 -16.027247,-16.030737 0,-8.91162 7.115653,-16.027271 16.027247,-16.027273 z m -40.175786,9.065684 c 3.90438,0 6.96505,3.057188 6.96505,6.961589 0,3.904386 -3.06067,6.965049 -6.96505,6.965049 -3.90439,0 -6.96161,-3.060663 -6.96161,-6.965049 0,-3.904401 3.05722,-6.961589 6.96161,-6.961589 z m 80.174511,0 c 3.90442,0 6.96506,3.057188 6.96506,6.961589 0,3.904386 -3.06066,6.965049 -6.96506,6.965049 -3.90436,0 -6.96158,-3.060663 -6.96158,-6.965049 0,-3.904401 3.05723,-6.961589 6.96158,-6.961589 z"
         style="color:#000000;font-style:normal;font-variant:normal;font-weight:normal;font-stretch:normal;font-size:medium;line-height:normal;font-family:sans-serif;text-indent:0;text-align:start;text-decoration:none;text-decoration-line:none;text-decoration-style:solid;text-decoration-color:#000000;letter-spacing:normal;word-spacing:normal;text-transform:none;writing-mode:lr-tb;direction:ltr;baseline-shift:baseline;text-anchor:start;white-space:normal;clip-rule:nonzero;display:inline;overflow:visible;visibility:visible;opacity:1;isolation:auto;mix-blend-mode:normal;color-interpolation:sRGB;color-interpolation-filters:linearRGB;solid-color:#000000;solid-opacity:1;fill:#ffffff;fill-opacity:1;fill-rule:nonzero;stroke:none;stroke-width:1.60556;stroke-linecap:butt;stroke-linejoin:miter;stroke-miterlimit:10;stroke-dasharray:none;stroke-dashoffset:0;stroke-opacity:1;color-rendering:auto;image-rendering:auto;shape-rendering:auto;text-rendering:auto;enable-background:accumulate"
         inkscape:export-filename="Nextcloud Hub logo variants.png"
         inkscape:export-xdpi="300"
         inkscape:export-ydpi="300" />
    </g>
    <path
       style="fill:none;stroke:#ffffff;stroke-width:2.865;stroke-linecap:butt;stroke-linejoin:miter;stroke-miterlimit:4;stroke-dasharray:none;stroke-opacity:1;marker-end:url(#Arrow2Lend)"
       d="m 152.58809,66.122375 c 19.1429,12.816 5.7664,37.142465 -3.5249,62.838535"
       id="path867"
       sodipodi:nodetypes="cc" />
  </g>
  <style
     id="style833">.style0{fill:	#0073aa;}</style>
</svg>
